<svg xmlns="http://www.w3.org/2000/svg" viewBox="0 0 64 64" role="img" aria-label="Coffee Lab">
  <rect width="64" height="64" rx="15" fill="#0B0908"/>
  <circle cx="32" cy="32" r="20" fill="none" stroke="#33271F" stroke-width="7"/>
  <path d="M47 20A20 20 0 0 0 24 13.7" fill="none" stroke="#DCA66C" stroke-width="7" stroke-linecap="round"/>
  <path d="M16.7 19.1A20 20 0 0 0 13 34" fill="none" stroke="#C76F91" stroke-width="4" stroke-linecap="round"/>
  <path d="M16.5 43.3A20 20 0 0 0 26 50.9" fill="none" stroke="#69CBD5" stroke-width="4" stroke-linecap="round"/>
  <path d="M36.1 22.2c5.7 4.6 8.1 9 5 14.4-3 5.3-9.7 5.9-14 2-4.6-4.3-3.3-10 9-16.4Z" fill="#DCA66C"/>
  <path d="M28.4 39c3.8-4.5 5.7-9.6 5.9-15.4" fill="none" stroke="#0B0908" stroke-width="2.5" stroke-linecap="round"/>
</svg>
